<svg xmlns="http://www.w3.org/2000/svg" enable-background="new 0 0 24 24" viewBox="0 0 24 24"><path fill="#4E8FF6" d="M12 6.529L12 6.529c-3.022.003-5.468 2.45-5.471 5.47.003 3.02 2.449 5.467 5.47 5.47 3.02-.003 5.467-2.45 5.469-5.47C17.464 8.98 15.018 6.534 12 6.529L12 6.529zM19.849 7.016c1.377 0 2.494-1.117 2.494-2.494 0-1.377-1.117-2.494-2.494-2.494s-2.494 1.117-2.494 2.494C17.355 5.899 18.473 7.016 19.849 7.016L19.849 7.016z"/><path fill="#4E8FF6" d="M12,24c6.619,0,12-5.381,12-12c0-1.73-0.361-3.403-1.078-4.973l-0.001-0.001l-0.102-0.229l-0.17,0.188c-0.407,0.464-0.928,0.821-1.504,1.036l-0.159,0.061l0.066,0.155c0.474,1.108,0.75,2.396,0.75,3.749v0.01c0,5.405-4.396,9.806-9.805,9.806c-5.409,0-9.802-4.397-9.802-9.802c0-5.405,4.402-9.806,9.806-9.806c1.466,0,2.883,0.319,4.2,0.947l0.154,0.074L16.42,3.06c0.254-0.582,0.63-1.07,1.1-1.447l0.007-0.006l0.196-0.159l-0.225-0.117C15.91,0.492,14.026,0,12.029,0H12C5.381,0,0,5.381,0,12C0,18.619,5.381,24,12,24L12,24z"/><path fill="#447CD6" d="M12 6.529L12 6.529c-3.022.003-5.468 2.45-5.471 5.47.002 1.584.675 3.01 1.751 4.009l7.726-7.726C15.008 7.206 13.583 6.532 12 6.529L12 6.529zM19.849 2.028c-1.377 0-2.494 1.117-2.494 2.494 0 .667.262 1.274.69 1.721l3.526-3.526C21.123 2.291 20.517 2.028 19.849 2.028L19.849 2.028z"/><path fill="#447CD6" d="M12.029,0H12C5.381,0,0,5.381,0,12c0,3.383,1.406,6.442,3.663,8.625l1.552-1.552c-1.862-1.785-3.022-4.297-3.022-7.074c0-5.405,4.402-9.806,9.806-9.806c1.466,0,2.883,0.319,4.2,0.947l0.154,0.074L16.42,3.06c0.254-0.582,0.63-1.07,1.1-1.447l0.007-0.006l0.196-0.159l-0.225-0.117C15.91,0.492,14.026,0,12.029,0L12.029,0z"/></svg>